<svg xmlns="http://www.w3.org/2000/svg" width="32" viewBox="0 0 1033.5 1031.999948" height="32" version="1.0"><defs><clipPath id="a"><path d="M45.128906 1H771v558H45.128906Zm0 0"/></clipPath><clipPath id="b"><path d="M261 473h726.421875v557.902344H261Zm0 0"/></clipPath></defs><g clip-path="url(#a)"><path fill="#3b6bf9" d="M555.804688 431.375c118.652343 0 215.113281-96.460938 215.113281-215.113281 0-118.652344-96.460938-215.113281-215.113281-215.113281H260.238281c-118.652343 0-215.109375 96.460937-215.109375 215.113281 0 90.269531 55.695313 169.65625 138.496094 201.027343v109.265626c0 12.589843 7.472656 24.113281 18.996094 29.234374 4.265625 1.921876 8.535156 2.773438 13.015625 2.773438 7.898437 0 15.578125-2.773438 21.554687-8.320312l131.457032-119.082032h187.15625Zm10.246093-254.804688c23.257813 0 42.253907 18.777344 42.253907 42.253907 0 23.472656-18.78125 42.253906-42.253907 42.253906-23.261719 0-42.257812-18.78125-42.257812-42.253906 0-23.476563 18.996093-42.253907 42.257812-42.253907Zm-312.640625 84.292969c-23.261718 0-42.253906-18.777343-42.253906-42.253906 0-23.472656 18.78125-42.253906 42.253906-42.253906 23.476563 0 42.253906 18.78125 42.253906 42.253906 0 23.476563-18.777343 42.253906-42.253906 42.253906Zm156.425782-84.292969c23.261718 0 42.253906 18.777344 42.253906 42.253907 0 23.472656-18.777344 42.253906-42.253906 42.253906-23.472657 0-42.253907-18.78125-42.253907-42.253906 0-23.476563 18.992188-42.253907 42.253907-42.253907Zm0 0"/></g><g clip-path="url(#b)"><path fill="#3b6bf9" d="M772.410156 473.203125H476.84375c-118.652344 0-215.109375 96.457031-215.109375 215.109375 0 118.65625 96.457031 215.113281 215.109375 215.113281h187.371094l131.457031 119.082031c5.976563 5.335938 13.660156 8.320313 21.554687 8.320313 4.480469 0 8.75-.851563 13.019532-2.773437 11.523437-5.121094 18.992187-16.644532 18.992187-29.234376V889.554688c82.585938-31.371094 138.5-110.757813 138.5-201.027344-.214843-118.867188-96.886719-215.324219-215.328125-215.324219ZM466.601562 732.914062c-23.261718 0-42.253906-18.777343-42.253906-42.253906 0-23.257812 18.78125-42.253906 42.253906-42.253906 23.476563 0 42.253907 18.78125 42.253907 42.253906-.210938 23.261719-18.992188 42.253906-42.253907 42.253906Zm156.214844 0c-23.261718 0-42.257812-18.777343-42.257812-42.253906 0-23.257812 18.78125-42.253906 42.257812-42.253906 23.472656 0 42.253906 18.78125 42.253906 42.253906-.214843 23.261719-18.996093 42.253906-42.253906 42.253906Zm156.210938 0c-23.261719 0-42.253906-18.777343-42.253906-42.253906 0-23.257812 18.777343-42.253906 42.253906-42.253906 23.472656 0 42.253906 18.78125 42.253906 42.253906 0 23.261719-18.992188 42.253906-42.253906 42.253906Zm0 0"/></g></svg>
